<svg width="428" height="52" viewBox="0 0 428 52" fill="none" xmlns="http://www.w3.org/2000/svg">
<g clip-path="url(#clip0_120_28)">
<path d="M1.75586 50.2169V1.76733H49.8916V50.2169H1.75586ZM26.6632 5.25571C15.8654 5.25571 8.61039 13.6743 8.61039 26.1859C8.61039 38.6976 15.9116 47.2247 26.771 47.2247C35.3662 47.2247 41.851 41.8914 43.2681 33.6433L43.453 32.6045H36.8603L36.7063 33.3022C35.7204 37.8604 31.8234 40.8526 26.771 40.9146C19.593 40.8526 15.1106 35.2092 15.1106 26.1859C15.1106 17.1627 19.6547 11.5658 26.6632 11.5658H26.9097C31.9158 11.5658 35.7513 14.5425 36.6909 19.1627L36.8295 19.8759H43.4376L43.2527 18.8371C41.8048 10.589 35.3816 5.25571 26.8943 5.25571H26.6478H26.6632Z" fill="white"/>
<path d="M49.0137 2.65111V49.3333H2.63392V2.65111H49.0137ZM26.7557 4.37204H26.6479C15.3264 4.37204 7.71706 13.1317 7.71706 26.186C7.71706 39.2403 15.3726 48.1085 26.7557 48.1085C35.8129 48.1085 42.6213 42.4961 44.1154 33.7984L44.4697 31.7209H36.121L35.8283 33.1162C34.7501 38.155 30.4217 39.9844 26.7865 40.031C20.1322 39.9844 15.9887 34.6821 15.9887 26.186C15.9887 17.6899 20.086 12.4496 26.6633 12.4496H26.7865H26.9097C31.4846 12.4496 34.9812 15.1472 35.8283 19.3333L36.121 20.7441H44.5005L44.1308 18.6666C42.6059 9.96894 35.8437 4.35654 26.9097 4.35654H26.7711M50.7851 0.868164H0.87793V51.0852H50.7697V0.883668L50.7851 0.868164ZM26.7711 6.12398C26.7711 6.12398 26.8635 6.12398 26.9097 6.12398C34.6577 6.12398 40.9731 10.8837 42.4056 18.9767H37.5689C36.4753 13.5968 31.9313 10.6666 26.9251 10.6666C26.8789 10.6666 26.8327 10.6666 26.7865 10.6666C26.7557 10.6666 26.7095 10.6666 26.6787 10.6666C19.6393 10.6666 14.2481 16.1395 14.2481 26.1705C14.2481 36.2015 19.7009 41.7364 26.7865 41.7829C31.8543 41.7209 36.4137 38.8527 37.5689 33.4728H42.4056C41.0347 41.5038 34.6423 46.3255 26.7865 46.3255C16.7743 46.3255 9.51926 38.5736 9.51926 26.1705C9.51926 13.7674 16.6973 6.13948 26.6633 6.13948C26.6941 6.13948 26.7403 6.13948 26.7711 6.13948V6.12398Z" fill="white"/>
<path d="M79.6516 40.9148C72.4582 40.8527 67.9912 35.2093 67.9912 26.1861C67.9912 17.1628 72.5352 11.5659 79.5438 11.5659H79.7594C86.7218 11.5659 91.2042 17.3024 91.2042 26.1861C91.2042 35.0698 86.6756 40.8527 79.6516 40.9148Z" fill="white"/>
<path d="M79.7595 12.4651C86.1827 12.4651 90.3263 17.8604 90.3263 26.2015C90.3263 34.5426 86.229 39.9845 79.6671 40.0465C73.0128 40 68.8693 34.6976 68.8693 26.2015C68.8693 21.8449 69.9629 18.2635 72.027 15.8449C73.9062 13.6434 76.5094 12.4806 79.5439 12.4806H79.6671H79.7595M79.7595 10.7131C79.7595 10.7131 79.6825 10.7131 79.6517 10.7131C79.6209 10.7131 79.5747 10.7131 79.5439 10.7131C72.5045 10.7131 67.1133 16.186 67.1133 26.217C67.1133 36.248 72.5661 41.7829 79.6517 41.8294C86.6448 41.7674 92.0823 36.341 92.0823 26.217C92.0823 16.093 86.6911 10.7131 79.7595 10.7131Z" fill="white"/>
<path d="M55.5293 50.2172V1.76758H103.665V50.2172H55.5293ZM79.5433 5.25595C68.7454 5.25595 61.4904 13.6746 61.4904 26.1862C61.4904 38.6978 68.7917 47.2249 79.6511 47.2249C90.5105 47.2249 97.6885 38.7753 97.6885 26.1862C97.6885 13.597 90.4797 5.25595 79.7589 5.25595H79.5433Z" fill="white"/>
<path d="M102.787 2.65123V49.3334H56.4076V2.65123H102.787ZM79.6514 4.37216H79.5435C68.222 4.37216 60.6127 13.1319 60.6127 26.1861C60.6127 39.2404 68.2682 48.1086 79.6514 48.1086C91.0345 48.1086 98.5822 39.0853 98.5822 26.1861C98.5822 19.7985 96.7646 14.3256 93.3142 10.3877C89.9255 6.5117 85.1196 4.37216 79.7746 4.37216H79.6668M104.559 0.883789H54.667V51.1008H104.559V0.883789ZM79.6668 6.1396C79.6668 6.1396 79.7438 6.1396 79.7746 6.1396C89.6174 6.1396 96.8262 13.876 96.8262 26.1861C96.8262 38.4962 89.5712 46.3412 79.6668 46.3412C69.7624 46.3412 62.3995 38.5892 62.3995 26.1861C62.3995 13.783 69.6083 6.1396 79.559 6.1396C79.5898 6.1396 79.636 6.1396 79.6668 6.1396Z" fill="white"/>
<path d="M109.287 50.2172V1.76758H157.423V50.2172H109.287ZM143.729 46.6668H149.69V5.70556H143.205V34.9614L122.981 5.70556H117.02V46.6823H123.628V17.6746L143.745 46.6668H143.729Z" fill="white"/>
<path d="M156.545 2.65123V49.3334H110.165V2.65123H156.545ZM142.328 32.1396L123.967 5.58146L123.443 4.82177H116.142V47.566H124.506V20.4962L142.759 46.8063L143.283 47.566H150.584V4.82177H142.328V32.1396ZM158.301 0.883789H108.409V51.1008H158.301V0.883789ZM143.637 37.1474H144.084V6.58922H148.812V45.783H144.191L123.073 15.3334H122.75V45.783H117.913V6.58922H122.534L143.652 37.1474H143.637Z" fill="white"/>
<path d="M163.045 50.2172V1.76758H211.181V50.2172H163.045ZM183.809 46.6668H190.417V11.7986H202.632V5.70556H171.609V11.7986H183.824V46.6823L183.809 46.6668Z" fill="white"/>
<path d="M210.303 2.65123V49.3334H163.923V2.65123H210.303ZM170.716 12.6667H182.931V47.5505H191.295V12.6822H203.51V4.82177H170.716V12.6822M212.059 0.883789H162.167V51.1008H212.059V0.883789ZM172.472 10.8993V6.57371H201.738V10.8993H189.524V45.783H184.687V10.9148H172.472V10.8993Z" fill="white"/>
<path d="M216.818 50.2172V1.76758H264.954V50.2172H216.818ZM228.679 46.6668H254.31V40.5738H235.272V29.1629H252.77V23.1784H235.272V11.7676H253.971V5.67455H228.664V46.6513L228.679 46.6668Z" fill="white"/>
<path d="M264.076 2.65123V49.3334H217.696V2.65123H264.076ZM227.801 47.5505H255.188V39.69H236.15V30.0621H253.648V22.3101H236.15V12.6822H254.85V4.82177H227.786V47.566M265.832 0.883789H215.94V51.1008H265.832V0.883789ZM229.557 45.783V6.58922H253.094V10.9148H234.394V24.0931H251.892V28.2946H234.394V41.4729H253.432V45.7985H229.557V45.783Z" fill="white"/>
<path d="M270.576 50.2172V1.76758H318.712V50.2172H270.576ZM305.018 46.6668H310.979V5.70556H304.495V34.9614L284.27 5.70556H278.309V46.6823H284.901V17.6746L305.018 46.6668Z" fill="white"/>
<path d="M317.834 2.65123V49.3334H271.454V2.65123H317.834ZM303.617 32.1396L285.256 5.58146L284.732 4.82177H277.431V47.566H285.795V20.4962L304.048 46.8063L304.572 47.566H311.873V4.82177H303.617V32.1396ZM319.606 0.883789H269.714V51.1008H319.606V0.883789ZM304.942 37.1474H305.388V6.58922H310.117V45.783H305.496L284.378 15.3334H284.054V45.783H279.218V6.58922H283.839L304.957 37.1474H304.942Z" fill="white"/>
<path d="M324.351 50.2172V1.76758H372.486V50.2172H324.351ZM345.114 46.6668H351.722V11.7986H363.937V5.70556H332.915V11.7986H345.13V46.6823L345.114 46.6668Z" fill="white"/>
<path d="M371.608 2.65123V49.3334H325.229V2.65123H371.608ZM332.022 12.6667H344.236V47.5505H352.601V12.6822H364.815V4.82177H332.022V12.6822M373.364 0.883789H323.473V51.1008H373.364V0.883789ZM333.778 10.8993V6.57371H363.044V10.8993H350.829V45.783H345.992V10.9148H333.778V10.8993Z" fill="white"/>
<path d="M378.108 50.2172V1.76758H426.244V50.2172H378.108ZM387.212 35.6591C387.705 42.8684 393.435 47.3335 402.169 47.3335C410.902 47.3335 417.064 42.4342 417.125 35.1629C417.064 26.5583 408.33 24.2172 405.465 23.442L401.491 22.4497C398.164 21.504 394.713 20.0932 394.683 16.8684C394.729 13.5815 397.763 11.349 402.23 11.349H402.554C406.836 11.349 409.716 13.3335 410.086 16.5428L410.178 17.3335H416.602L416.571 16.4187C416.324 9.95362 410.471 5.27145 402.631 5.27145H402.353C394.205 5.27145 388.244 10.2482 388.198 17.1164C388.259 22.4342 391.833 26.1397 398.841 28.1552L403.586 29.4885C408.053 30.7598 410.64 32.0932 410.64 35.0544C410.64 38.6513 407.159 41.2094 402.153 41.256C400.351 41.2404 394.359 40.7598 393.912 35.535L393.835 34.7288H387.135L387.196 35.6746L387.212 35.6591Z" fill="white"/>
<path d="M425.366 2.65123V49.3334H378.986V2.65123H425.366ZM402.184 40.3567C400.52 40.3412 395.191 39.907 394.806 35.4419L394.667 33.8295H386.226L386.349 35.721C386.858 43.3179 393.081 48.2326 402.184 48.2326C411.287 48.2326 417.957 42.9923 418.034 35.1474C417.973 25.876 408.746 23.4109 405.696 22.5892L401.784 21.6125C398.58 20.6977 395.622 19.4884 395.576 16.9148C395.622 14.1241 398.302 12.2326 402.246 12.2326H402.415H402.569C405.542 12.2326 408.854 13.3954 409.239 16.6512L409.424 18.2171H417.541L417.48 16.3722C417.218 9.41092 410.995 4.37216 402.662 4.37216H402.538H402.384C393.728 4.37216 387.412 9.721 387.351 17.1319C387.412 22.8683 391.201 26.8683 398.641 29.0078L403.37 30.3412C408.114 31.69 409.793 32.9303 409.793 35.0543C409.793 38.6512 405.865 40.3257 402.199 40.3722M427.122 0.883789H377.23V51.1008H427.122V0.883789ZM402.169 42.1396C407.498 42.0776 411.519 39.3179 411.519 35.0543C411.519 31.2404 407.883 29.7985 403.817 28.6357L399.088 27.3024C392.927 25.535 389.137 22.3722 389.076 17.1163C389.137 10.5117 394.883 6.15511 402.353 6.15511C402.4 6.15511 402.446 6.15511 402.492 6.15511C402.538 6.15511 402.585 6.15511 402.631 6.15511C410.148 6.15511 415.477 10.5737 415.693 16.4497H410.964C410.533 12.6822 407.082 10.4652 402.554 10.4652C402.492 10.4652 402.446 10.4652 402.384 10.4652C402.338 10.4652 402.276 10.4652 402.23 10.4652C397.147 10.4652 393.866 13.1629 393.805 16.8838C393.866 20.9768 398.364 22.4807 401.291 23.3024L405.249 24.2946C409.377 25.3954 416.201 27.783 416.247 35.1474C416.186 41.5195 411.133 46.4497 402.169 46.4497C393.758 46.4497 388.521 42.1241 388.09 35.597H393.034C393.42 40.0311 397.486 42.0776 402.169 42.1241V42.1396Z" fill="white"/>
</g>
<defs>
<clipPath id="clip0_120_28">
<rect width="428" height="52" fill="white"/>
</clipPath>
</defs>
</svg>
