<svg width="380" height="53" viewBox="0 0 380 53" fill="none" xmlns="http://www.w3.org/2000/svg">
<g clip-path="url(#clip0_510_2)">
<path d="M208.059 8.40784V45.5922H171.381V8.40784H208.059ZM209.448 7H169.992V47H209.448V7Z" fill="#F28542"/>
<path d="M250.573 8.40784V45.5922H213.895V8.40784H250.573ZM251.962 7H212.506V47H251.962V7Z" fill="#F28542"/>
<path d="M293.086 8.40784V45.5922H256.407V8.40784H293.086ZM294.474 7H255.019V47H294.474V7Z" fill="#F28542"/>
<path d="M335.611 8.40784V45.5922H298.933V8.40784H335.611ZM337 7H297.544V47H337V7Z" fill="#F28542"/>
<path d="M80.4948 8.40784V45.5922H43.8164V8.40784H80.4948ZM81.8835 7H42.4277V47H81.8835V7Z" fill="#F28542"/>
<path d="M123.02 8.40784V45.5922H86.3418V8.40784H123.02ZM124.409 7H84.9531V47H124.409V7Z" fill="#F28542"/>
<path d="M165.534 8.40784V45.5922H128.855V8.40784H165.534ZM166.923 7H127.467V47H166.923V7Z" fill="#F28542"/>
<path d="M38.0671 8.40784V45.5922H1.38869V8.40784H38.0671ZM39.4557 7H0V47H39.4557V7Z" fill="#F28542"/>
</g>
<path d="M378.067 8.40784V45.5922H341.389V8.40784H378.067ZM379.456 7H340V47H379.456V7Z" fill="#F28542"/>
<path d="M15.5467 43H11.6876V11.884H30.4058V15.3177H15.5467V25.7099H29.0081V29.1133H15.5467V43Z" fill="#F28542"/>
<path d="M70.2381 32.1519V11.884H74.1276V32.4558C74.1276 38.8674 69.3265 43.547 62.0033 43.547C54.6497 43.547 49.879 38.8674 49.879 32.4558V11.884H53.7381V32.1519C53.7381 36.6796 56.868 39.9309 62.0033 39.9309C67.1387 39.9309 70.2381 36.6796 70.2381 32.1519Z" fill="#F28542"/>
<path d="M110.925 30.192L117.944 43H113.447L106.914 30.8909C106.686 30.9061 106.427 30.9061 106.184 30.9061H99.4081V43H95.5489V11.884H106.124C113.416 11.884 116.728 15.9254 116.728 21.4558C116.728 25.5884 114.875 28.8246 110.925 30.192ZM105.972 15.3177H99.4081V27.4116H106.002C110.955 27.4116 112.9 25.163 112.9 21.4558C112.9 17.7486 110.955 15.3177 105.972 15.3177Z" fill="#F28542"/>
<path d="M155.549 11.884H159.347V43H155.64L138.806 18.7818H138.502V43H134.643V11.884H138.38L155.245 36.163H155.549V11.884Z" fill="#F28542"/>
<path d="M188.563 11.884H192.422V43H188.563V11.884Z" fill="#F28542"/>
<path d="M230.567 15.3177H220.783V11.884H244.211V15.3177H234.457V43H230.567V15.3177Z" fill="#F28542"/>
<path d="M283.238 32.1519V11.884H287.128V32.4558C287.128 38.8674 282.327 43.547 275.003 43.547C267.65 43.547 262.879 38.8674 262.879 32.4558V11.884H266.738V32.1519C266.738 36.6796 269.868 39.9309 275.003 39.9309C280.139 39.9309 283.238 36.6796 283.238 32.1519Z" fill="#F28542"/>
<path d="M370.516 43H351.433V11.884H370.303V15.3177H355.292V25.7099H369.3V29.1133H355.292V39.5663H370.516V43Z" fill="#F28542"/>
<path d="M322.925 30.192L329.944 43H325.447L318.914 30.8909C318.686 30.9061 318.427 30.9061 318.184 30.9061H311.408V43H307.549V11.884H318.124C325.416 11.884 328.728 15.9254 328.728 21.4558C328.728 25.5884 326.875 28.8246 322.925 30.192ZM317.972 15.3177H311.408V27.4116H318.002C322.955 27.4116 324.9 25.163 324.9 21.4558C324.9 17.7486 322.955 15.3177 317.972 15.3177Z" fill="#F28542"/>
<defs>
<clipPath id="clip0_510_2">
<rect width="337" height="40" fill="white" transform="translate(0 7)"/>
</clipPath>
</defs>
</svg>
