<svg width="102" height="32" viewBox="0 0 102 32" fill="none" xmlns="http://www.w3.org/2000/svg">
<g clip-path="url(#clip0_112_20)">
<path d="M70.3768 0V32H102V0H70.3768ZM98.0142 20.2339C97.7944 23.4886 97.4838 25.5004 97.0919 26.279C96.6952 27.0527 96.1743 27.5992 95.5243 27.9232C94.8744 28.2424 93.4216 28.4068 91.1706 28.4068C90.4968 28.4068 89.842 28.3923 89.2064 28.3633L88.1932 25.5874C89.1634 25.6455 90.8026 25.6745 93.1013 25.6745C93.4789 25.6745 93.8134 25.5729 94.105 25.3698C94.3965 25.1667 94.602 24.9055 94.7167 24.596C94.8314 24.2865 94.97 23.1597 95.1372 21.2253C95.2997 19.2909 95.4144 17.3613 95.4861 15.4318L95.6438 9.90902H87.0654C86.7882 14.6435 85.7941 18.3769 84.0832 21.1093C82.3723 23.8416 79.6434 26.279 75.8871 28.4213L74.1093 26.2161C76.8811 24.862 79.2085 23.0243 81.0915 20.7079C82.9745 18.3914 84.0784 14.7886 84.4082 9.90902H75.0364V7.33626H84.5516C84.6663 5.77905 84.7093 4.05743 84.6806 2.17621H87.3951C87.3951 3.65604 87.3378 5.37766 87.2231 7.33626H98.3727C98.3536 12.6849 98.2341 16.9841 98.0095 20.2388L98.0142 20.2339Z" fill="#984678"/>
<path d="M30.2373 1.40245V30.5976H1.38593V1.40245H30.2373ZM31.6232 0H0V32H31.6232V0Z" fill="#984678"/>
<path d="M28.6888 28.8951H2.93436V26.3223H14.4233V21.0269H5.63932V18.4541H26.0603V21.0269H17.1426V26.3223H28.6888V28.8951ZM28.2396 12.0609L25.6111 12.0899V8.68048H19.9001V12.6895C19.9001 12.9604 20.0005 13.1973 20.1964 13.3908C20.3924 13.5842 20.6265 13.6809 20.8989 13.6809H27.3603V16.1667H20.4354C18.3851 16.1667 17.3576 15.1172 17.3576 13.0232V8.68048H14.5666C13.8163 12.8153 10.6191 15.7411 4.98458 17.4579L3.49351 15.2333C8.58323 13.7245 11.3742 11.5386 11.876 8.68048H5.92128V12.0899H3.32146V6.16575H14.5953C14.4328 5.49354 14.0887 4.71494 13.5678 3.82511L16.2584 3.10938C16.7125 4.06691 17.0757 5.08247 17.3576 6.16575H28.2396V12.0609Z" fill="#984678"/>
<path d="M65.4257 1.40245V30.5976H36.5744V1.40245H65.4257ZM66.8116 0H35.1884V32H66.8116V0Z" fill="#984678"/>
<path d="M50.0561 12.9022H41.5589V28.7111H38.9591V3.29297H50.0609V12.9022H50.0561ZM47.4707 7.00704V5.6191H41.5589V7.00704H47.4707ZM47.4707 10.5905V9.10104H41.5589V10.5905H47.4707ZM57.1818 25.9643H44.9855V14.3094H57.1818V25.9643ZM54.6393 18.9278V16.6452H47.528V18.9278H54.6393ZM54.6393 23.6526V21.1959H47.528V23.6526H54.6393ZM63.0505 26.0803C63.0505 26.9895 62.8115 27.6472 62.3288 28.0631C61.8461 28.479 61.2679 28.687 60.594 28.687C59.7577 28.687 59.1651 28.6773 58.8162 28.6579L57.9177 26.0852C58.5438 26.1142 59.0408 26.1287 59.4088 26.1287C59.8724 26.1287 60.1591 26.0948 60.269 26.032C60.379 25.9691 60.4363 25.8482 60.4363 25.6741V12.907H52.0968V3.29297H63.0505V26.0803ZM60.4363 7.00704V5.6191H54.6393V7.00704H60.4363ZM60.4363 10.5905V9.10104H54.6393V10.5905H60.4363Z" fill="#984678"/>
</g>
<defs>
<clipPath id="clip0_112_20">
<rect width="102" height="32" fill="white"/>
</clipPath>
</defs>
</svg>
