<svg width="1920" height="2773" viewBox="0 0 1920 2773" fill="none" xmlns="http://www.w3.org/2000/svg">
<rect x="331" y="551" width="210" height="212" stroke="#F28542"/>
<rect x="1621" y="1101" width="210" height="212" transform="rotate(180 1621 1101)" stroke="#F28542"/>
<rect x="788" y="322" width="140" height="141" stroke="#F28542"/>
<rect x="1164" y="1330" width="140" height="141" transform="rotate(180 1164 1330)" stroke="#F28542"/>
<rect x="1521" y="229" width="140" height="141" stroke="#F28542"/>
<rect x="1584" y="1060" width="300" height="141" stroke="#F28542"/>
<rect x="296" y="1304" width="209" height="205" transform="rotate(180 296 1304)" stroke="#F28542"/>
<rect x="280" y="889" width="109" height="110" transform="rotate(180 280 889)" stroke="#F28542"/>
<rect x="926" y="753" width="109" height="110" transform="rotate(180 926 753)" stroke="#F28542"/>
<rect x="1208" y="341" width="210" height="210" stroke="#F28542"/>
<rect x="744" y="1425" width="210" height="287" transform="rotate(180 744 1425)" stroke="#F28542"/>
<rect x="1071" y="482" width="210" height="210" stroke="#F28542"/>
<rect x="881" y="1170" width="210" height="210" transform="rotate(180 881 1170)" stroke="#F28542"/>
<rect x="471" y="201" width="211" height="420" stroke="#F28542"/>
<rect x="1675" y="1264" width="212" height="566" transform="rotate(90 1675 1264)" stroke="#F28542"/>
<rect x="1697" y="514" width="156" height="313" transform="rotate(90 1697 514)" stroke="#F28542"/>
<rect x="255" y="1138" width="156" height="313" transform="rotate(-90 255 1138)" stroke="#F28542"/>
<line x1="401.5" y1="482" x2="401.5" y2="307" stroke="#F28542" stroke-width="3"/>
<line x1="1678.5" y1="1264.01" x2="1676.5" y2="1477.01" stroke="#F28542" stroke-width="3"/>
<line x1="436" y1="551.5" x2="541" y2="551.5" stroke="#F28542" stroke-width="3"/>
<line x1="1516" y1="1100.5" x2="1411" y2="1100.5" stroke="#F28542" stroke-width="3"/>
<line x1="401" y1="481.5" x2="51" y2="481.5" stroke="#F28542"/>
<line x1="1551" y1="468.5" x2="1901" y2="468.5" stroke="#F28542"/>
<line x1="401.5" y1="482" x2="401.5" y2="132" stroke="#F28542"/>
<line x1="1550.5" y1="468" x2="1550.5" y2="818" stroke="#F28542"/>
<line x1="403" y1="481.5" x2="228" y2="481.5" stroke="#F28542" stroke-width="3"/>
<line x1="1725" y1="468.5" x2="1550" y2="468.5" stroke="#F28542" stroke-width="3"/>
<line x1="1550.5" y1="643" x2="1550.5" y2="468" stroke="#F28542" stroke-width="3"/>
<line x1="1417.5" y1="551" x2="1417.5" y2="340" stroke="#F28542" stroke-width="3"/>
<line x1="1207" y1="340.5" x2="1418" y2="340.5" stroke="#F28542" stroke-width="3"/>
<line x1="472.5" y1="201" x2="472.5" y2="412" stroke="#F28542" stroke-width="3"/>
<line x1="682.5" y1="411" x2="682.5" y2="622" stroke="#F28542" stroke-width="3"/>
<line x1="1269.5" y1="1241" x2="1269.5" y2="1030" stroke="#F28542" stroke-width="3"/>
<line x1="471" y1="201.5" x2="684" y2="201.5" stroke="#F28542" stroke-width="3"/>
<rect x="331" y="1721" width="210" height="212" stroke="#F28542"/>
<rect x="1621" y="2271" width="210" height="212" transform="rotate(180 1621 2271)" stroke="#F28542"/>
<rect x="788" y="1492" width="140" height="141" stroke="#F28542"/>
<rect x="1164" y="2500" width="140" height="141" transform="rotate(180 1164 2500)" stroke="#F28542"/>
<rect x="1521" y="1399" width="140" height="141" stroke="#F28542"/>
<rect x="1584" y="2230" width="300" height="141" stroke="#F28542"/>
<rect x="296" y="2474" width="209" height="205" transform="rotate(180 296 2474)" stroke="#F28542"/>
<rect x="280" y="2059" width="109" height="110" transform="rotate(180 280 2059)" stroke="#F28542"/>
<rect x="926" y="1923" width="109" height="110" transform="rotate(180 926 1923)" stroke="#F28542"/>
<rect x="1208" y="1511" width="210" height="210" stroke="#F28542"/>
<rect x="744" y="2595" width="210" height="287" transform="rotate(180 744 2595)" stroke="#F28542"/>
<rect x="1071" y="1652" width="210" height="210" stroke="#F28542"/>
<rect x="881" y="2340" width="210" height="210" transform="rotate(180 881 2340)" stroke="#F28542"/>
<rect x="471" y="1371" width="211" height="420" stroke="#F28542"/>
<rect x="1675" y="2434" width="212" height="566" transform="rotate(90 1675 2434)" stroke="#F28542"/>
<rect x="1697" y="1684" width="156" height="313" transform="rotate(90 1697 1684)" stroke="#F28542"/>
<rect x="255" y="2308" width="156" height="313" transform="rotate(-90 255 2308)" stroke="#F28542"/>
<line x1="401.5" y1="1652" x2="401.5" y2="1477" stroke="#F28542" stroke-width="3"/>
<line x1="1678.5" y1="2434.01" x2="1676.5" y2="2647.01" stroke="#F28542" stroke-width="3"/>
<line x1="436" y1="1721.5" x2="541" y2="1721.5" stroke="#F28542" stroke-width="3"/>
<line x1="1516" y1="2270.5" x2="1411" y2="2270.5" stroke="#F28542" stroke-width="3"/>
<line x1="401" y1="1651.5" x2="51" y2="1651.5" stroke="#F28542"/>
<line x1="1551" y1="1638.5" x2="1901" y2="1638.5" stroke="#F28542"/>
<line x1="401.5" y1="1652" x2="401.5" y2="1302" stroke="#F28542"/>
<line x1="1550.5" y1="1638" x2="1550.5" y2="1988" stroke="#F28542"/>
<line x1="403" y1="1651.5" x2="228" y2="1651.5" stroke="#F28542" stroke-width="3"/>
<line x1="1725" y1="1638.5" x2="1550" y2="1638.5" stroke="#F28542" stroke-width="3"/>
<line x1="1550.5" y1="1813" x2="1550.5" y2="1638" stroke="#F28542" stroke-width="3"/>
<line x1="1417.5" y1="1721" x2="1417.5" y2="1510" stroke="#F28542" stroke-width="3"/>
<line x1="1207" y1="1510.5" x2="1418" y2="1510.5" stroke="#F28542" stroke-width="3"/>
<line x1="472.5" y1="1371" x2="472.5" y2="1582" stroke="#F28542" stroke-width="3"/>
<line x1="682.5" y1="1581" x2="682.5" y2="1792" stroke="#F28542" stroke-width="3"/>
<line x1="1269.5" y1="2411" x2="1269.5" y2="2200" stroke="#F28542" stroke-width="3"/>
<line x1="471" y1="1371.5" x2="684" y2="1371.5" stroke="#F28542" stroke-width="3"/>
</svg>
