<svg width="337" height="40" viewBox="0 0 337 40" fill="none" xmlns="http://www.w3.org/2000/svg">
<g clip-path="url(#clip0_112_237)">
<path d="M180.785 35.7641V4.30997H199.605V7.78017H184.634V18.2896H198.606V21.7351H184.634V32.3063H199.812V35.7765H180.785V35.7641Z" fill="#F28542"/>
<path d="M208.059 1.40784V38.5922H171.381V1.40784H208.059ZM209.448 0H169.992V40H209.448V0Z" fill="#F28542"/>
<path d="M244.677 4.30997V35.7641H240.986L224.2 11.2874H223.895V35.7641H220.046V4.30997H223.773L240.584 28.8484H240.888V4.30997H244.677Z" fill="#F28542"/>
<path d="M250.573 1.40784V38.5922H213.894V1.40784H250.573ZM251.961 0H212.505V40H251.961V0Z" fill="#F28542"/>
<path d="M263.168 7.78017V4.30997H286.532V7.78017H276.811V35.7641H272.938V7.78017H263.18H263.168Z" fill="#F28542"/>
<path d="M293.086 1.40784V38.5922H256.407V1.40784H293.086ZM294.475 0H255.019V40H294.475V0Z" fill="#F28542"/>
<path d="M324.404 12.2383C324.075 9.13861 321.249 7.36028 317.522 7.36028C313.429 7.36028 310.737 9.54614 310.737 12.5224C310.737 15.8444 314.367 17.067 316.706 17.6845L319.824 18.5489C323.125 19.4134 328.583 21.3399 328.583 27.2059C328.583 32.331 324.526 36.3322 317.339 36.3322C310.639 36.3322 306.498 32.8249 306.132 27.6134H310.103C310.408 31.1454 313.648 32.8002 317.339 32.8002C321.615 32.8002 324.819 30.5526 324.819 27.1442C324.819 24.0691 321.944 22.9083 318.667 21.9821L314.878 20.9077C310.006 19.4998 306.973 16.9805 306.973 12.7076C306.973 7.39733 311.638 3.89008 317.632 3.89008C323.625 3.89008 327.998 7.45908 328.144 12.2507H324.392L324.404 12.2383Z" fill="#F28542"/>
<path d="M335.611 1.40784V38.5922H298.933V1.40784H335.611ZM337 0H297.544V40H337V0Z" fill="#F28542"/>
<path d="M50.5775 7.78017V4.30997H73.9415V7.78017H64.2207V35.7641H60.347V7.78017H50.5896H50.5775Z" fill="#F28542"/>
<path d="M80.4951 1.40784V38.5922H43.8167V1.40784H80.4951ZM81.8838 0H42.428V40H81.8838V0Z" fill="#F28542"/>
<path d="M112.654 4.30997H116.528V25.1065C116.528 31.59 111.74 36.3198 104.444 36.3198C97.1471 36.3198 92.3598 31.59 92.3598 25.1065V4.30997H96.2091V24.7978C96.2091 29.3794 99.3276 32.6644 104.456 32.6644C109.584 32.6644 112.666 29.3794 112.666 24.7978V4.30997H112.654Z" fill="#F28542"/>
<path d="M123.021 1.40784V38.5922H86.3422V1.40784H123.021ZM124.409 0H84.9535V40H124.409V0Z" fill="#F28542"/>
<path d="M160.515 19.9815C160.515 29.8117 155.18 35.7641 145.727 35.7641H136.091V4.30997H146.117C155.18 4.30997 160.503 10.213 160.503 19.9691L160.515 19.9815ZM145.483 32.2939C153.084 32.2939 156.751 27.6258 156.751 19.9815C156.751 12.3371 153.084 7.79252 145.873 7.79252H139.928V32.3063H145.471L145.483 32.2939Z" fill="#F28542"/>
<path d="M165.534 1.40784V38.5922H128.855V1.40784H165.534ZM166.923 0H127.467V40H166.923V0Z" fill="#F28542"/>
<path d="M26.8601 12.2383C26.5312 9.13861 23.7051 7.36028 19.9776 7.36028C15.8846 7.36028 13.1925 9.54614 13.1925 12.5224C13.1925 15.8444 16.8226 17.067 19.1615 17.6845L22.2799 18.5489C25.5811 19.4134 31.0384 21.3399 31.0384 27.2059C31.0384 32.331 26.982 36.3322 19.7949 36.3322C13.0951 36.3322 8.9534 32.8373 8.58795 27.6134H12.5591C12.8636 31.1454 16.1039 32.8002 19.7949 32.8002C24.0706 32.8002 27.2743 30.5526 27.2743 27.1442C27.2743 24.0691 24.3995 22.9083 21.1227 21.9821L17.3342 20.9077C12.4617 19.4998 9.42847 16.9805 9.42847 12.7076C9.42847 7.39733 14.094 3.89008 20.0872 3.89008C26.0805 3.89008 30.4537 7.45908 30.5998 12.2507H26.848L26.8601 12.2383Z" fill="#F28542"/>
<path d="M38.0671 1.40784V38.5922H1.38869V1.40784H38.0671ZM39.4557 0H0V40H39.4557V0Z" fill="#F28542"/>
</g>
<defs>
<clipPath id="clip0_112_237">
<rect width="337" height="40" fill="white"/>
</clipPath>
</defs>
</svg>
